<?xml version="1.0" encoding="UTF-8"?>
<svg width="15px" height="21px" viewBox="0 0 15 21" version="1.1" xmlns="http://www.w3.org/2000/svg" xmlns:xlink="http://www.w3.org/1999/xlink">
    <!-- Generator: Sketch 46.2 (44496) - http://www.bohemiancoding.com/sketch -->
    <title>Page 1</title>
    <desc>Created with Sketch.</desc>
    <defs></defs>
    <g id="-Symbols" stroke="none" stroke-width="1" fill="none" fill-rule="evenodd">
        <g id="Menu-close" transform="translate(-267.000000, 0.000000)" stroke="#000000" stroke-width="0.5">
            <g id="Page-1" transform="translate(276.358518, 10.566513) rotate(-30.000000) translate(-276.358518, -10.566513) translate(269.358518, 0.066513)">
                <path d="M6.58967094,0.231034197 C3.0829618,0.231034197 0.230262707,3.08258777 0.230262707,6.58967089 C0.230262707,10.0951552 3.0829618,12.9475082 6.58967094,12.9475082 C10.0963801,12.9475082 12.9490792,10.0951552 12.9490792,6.58967089 C12.9490792,3.08258777 10.0963801,0.231034197 6.58967094,0.231034197 Z M6.58967094,13.1785424 C2.95663712,13.1785424 0,10.2222639 0,6.58967089 C0,2.95627841 2.95663712,0 6.58967094,0 C10.2227048,0 13.1785424,2.95627841 13.1785424,6.58967089 C13.1785424,10.2222639 10.2227048,13.1785424 6.58967094,13.1785424 Z" id="Stroke-1"></path>
                <path d="M6.58927118,20.8660254 C5.98343106,20.8660254 5.49105932,20.1508346 5.49105932,19.2713433 L5.49105932,15.3749661 L5.65923567,15.3749661 L5.65923567,19.2713433 C5.65923567,20.0489831 6.07663723,20.6816519 6.58927118,20.6816519 C7.10190513,20.6816519 7.51863128,20.0489831 7.51863128,19.2713433 L7.51863128,15.3749661 L7.68748304,15.3749661 L7.68748304,19.2713433 C7.68748304,20.1508346 7.1944359,20.8660254 6.58927118,20.8660254 Z" id="Stroke-3"></path>
            </g>
        </g>
    </g>
</svg>