<svg id="Слой_1" data-name="Слой 1" xmlns="http://www.w3.org/2000/svg" viewBox="0 0 20 20"><defs><style>.cls-1{fill:#fff;}</style></defs><title>icons-14</title><rect x="15.96" y="3.08" width="0.5" height="13.85"/><rect x="9.75" y="3.08" width="0.5" height="13.85"/><rect x="3.68" y="3.08" width="0.5" height="13.85"/><circle class="cls-1" cx="3.93" cy="8" r="1.57"/><path d="M3.93,5.82A2.18,2.18,0,1,0,6.11,8,2.18,2.18,0,0,0,3.93,5.82ZM2.36,8A1.57,1.57,0,1,1,3.93,9.57,1.58,1.58,0,0,1,2.36,8Z"/><path class="cls-1" d="M11.56,12.51A1.57,1.57,0,0,0,10,11.18l-.24,0A1.57,1.57,0,0,0,9.07,14h0a1.57,1.57,0,0,0,2.49-1.51Z"/><path d="M12.15,12.42A2.18,2.18,0,1,0,10,14.93l.33,0a2.18,2.18,0,0,0,1.82-2.48Zm-1.91,1.89A1.56,1.56,0,0,1,9.07,14h0a1.57,1.57,0,0,1,.69-2.82l.24,0a1.57,1.57,0,0,1,.24,3.13Z"/><path class="cls-1" d="M17.14,5.23a1.57,1.57,0,1,0,.34,2.2A1.57,1.57,0,0,0,17.14,5.23Z"/><path d="M17.5,4.75A2.18,2.18,0,1,0,16.2,8.68l.33,0A2.15,2.15,0,0,0,18,7.79,2.18,2.18,0,0,0,17.5,4.75Zm-1,3.31a1.57,1.57,0,0,1-1.51-2.49,1.57,1.57,0,1,1,1.51,2.49Z"/></svg>