<svg xmlns="http://www.w3.org/2000/svg" xmlns:xlink="http://www.w3.org/1999/xlink" width="16" height="20" viewBox="0 0 16 20">
  <defs>
    <polygon id="icon-basket-a" points="0 19.2 15.725 19.2 15.725 0 0 0"/>
  </defs>
  <g fill-rule="evenodd">
    <path d="M4.57397333,4.08021333 C4.40117333,4.08021333 4.26037333,3.93941333 4.26037333,3.76661333 C4.26037333,1.68981333 5.94997333,0.000213333333 8.02677333,0.000213333333 C10.1035733,0.000213333333 11.7931733,1.68981333 11.7931733,3.76661333 C11.7931733,3.93941333 11.6523733,4.08021333 11.4795733,4.08021333 C11.3067733,4.08021333 11.1649067,3.93941333 11.1649067,3.76661333 C11.1649067,2.03541333 9.75690667,0.627413333 8.02677333,0.627413333 C6.29557333,0.627413333 4.88864,2.03541333 4.88864,3.76661333 C4.88864,3.93941333 4.74677333,4.08021333 4.57397333,4.08021333 Z"/>
    <mask id="icon-basket-b">
      <use xlink:href="#icon-basket-a"/>
    </mask>
    <path d="M0,19.2 L12.8405333,19.2 C13.0133333,19.2 13.1552,19.0592 13.1552,18.8864 C13.1552,18.7125333 13.0133333,18.5728 12.8405333,18.5728 L0.628266667,18.5728 L0.628266667,5.20426667 L15.0965333,5.20426667 L15.0965333,18.8864 C15.0965333,19.0592 15.2373333,19.2 15.4101333,19.2 C15.5829333,19.2 15.7248,19.0592 15.7248,18.8864 L15.7248,4.57706667 L0,4.57706667 L0,19.2 Z" mask="url(#icon-basket-b)"/>
  </g>
</svg>
