<?xml version="1.0" encoding="utf-8"?>
<!-- Generator: Adobe Illustrator 22.0.0, SVG Export Plug-In . SVG Version: 6.00 Build 0)  -->
<svg version="1.1" id="Слой_1" xmlns="http://www.w3.org/2000/svg" xmlns:xlink="http://www.w3.org/1999/xlink" x="0px" y="0px"
	 viewBox="0 0 330 60" style="enable-background:new 0 0 330 60;" xml:space="preserve">
<style type="text/css">
	.st0{fill:#005098;}
	.st1{fill:#F6A500;}
	.st2{fill:#1D1D1B;}
	.st3{fill:#E20D17;}
	.st4{fill:#EA610A;}
	.st5{fill:#F59E00;}
	.st6{fill:#FF0000;}
	.st7{fill:#FFCF00;}
	.st8{fill:#D7B000;}
</style>
<title>yandexcard</title>
<g>
	<polygon class="st0" points="168.7,43.4 172.4,21.8 178.3,21.8 174.6,43.4 	"/>
	<path class="st0" d="M196,22.3c-1.7-0.6-3.5-0.9-5.3-0.9c-5.8,0-9.9,2.9-10,7.1c0,3.1,2.9,4.8,5.2,5.9s3.1,1.7,3.1,2.7
		c0,1.5-1.8,2.1-3.5,2.1c-1.9,0-3.8-0.3-5.5-1.1l-0.8-0.3l-0.8,4.8c2.1,0.8,4.3,1.2,6.6,1.2c6.2,0,10.2-2.9,10.3-7.4
		c0-2.5-1.5-4.3-4.9-5.9c-2.1-1-3.3-1.7-3.3-2.7s1.1-1.9,3.4-1.9c1.5,0,3,0.2,4.4,0.8l0.5,0.2L196,22.3"/>
	<path class="st0" d="M211.1,21.8h-4.6c-1.3-0.2-2.6,0.6-3.1,1.8l-8.8,19.8h6.2c0,0,1-2.7,1.2-3.2h7.6c0.2,0.8,0.7,3.2,0.7,3.2h5.5
		L211.1,21.8 M203.9,35.8c0.5-1.2,2.4-6,2.4-6s0.5-1.3,0.8-2.1l0.4,1.9c0,0,1.1,5.2,1.4,6.2L203.9,35.8z"/>
	<path class="st0" d="M163.8,21.8L158,36.6l-0.6-3c-1.1-3.5-4.4-7.2-8.2-9.1l5.3,18.9h6.2l9.3-21.6L163.8,21.8"/>
	<path class="st1" d="M152.7,21.8h-9.5l-0.1,0.5c7.4,1.8,12.3,6.1,14.3,11.3l-2.1-9.9C155,22.3,153.9,21.9,152.7,21.8"/>
</g>
<path class="st2" d="M267.2,49.3c-0.1-0.1-0.3-0.3-0.5-0.3c-0.2-0.1-0.4-0.1-0.6-0.1c-0.1,0-0.3,0-0.4,0c-0.1,0-0.3,0.1-0.4,0.1
	c-0.1,0.1-0.3,0.1-0.4,0.2c-0.1,0.1-0.2,0.2-0.3,0.4c-0.1-0.2-0.3-0.4-0.6-0.5c-0.2-0.1-0.5-0.2-0.8-0.2h-0.3
	c-0.1,0-0.2,0.1-0.3,0.1c-0.1,0-0.2,0.1-0.3,0.2c-0.1,0.1-0.2,0.2-0.3,0.3v-0.5h-0.9V53h0.9v-2.2c0-0.2,0-0.3,0.1-0.5
	c0-0.1,0.1-0.2,0.2-0.3c0.1-0.1,0.2-0.2,0.3-0.2c0.1-0.1,0.3-0.1,0.4-0.1c0.3,0,0.5,0.1,0.7,0.3c0.2,0.2,0.3,0.5,0.2,0.8v2.3h0.9
	v-2.3c0-0.2,0-0.3,0.1-0.5c0.1-0.1,0.1-0.2,0.2-0.3c0.1-0.1,0.2-0.2,0.3-0.2c0.1,0,0.3-0.1,0.4-0.1c0.3,0,0.5,0.1,0.7,0.3
	c0.2,0.2,0.3,0.5,0.2,0.8v2.3h0.9v-2.6c0-0.2,0-0.4-0.1-0.7C267.5,49.6,267.4,49.4,267.2,49.3z"/>
<path class="st2" d="M271.9,49.4c-0.1-0.2-0.3-0.3-0.5-0.4c-0.2-0.1-0.5-0.2-0.8-0.2c-0.3,0-0.6,0.1-0.8,0.2
	c-0.5,0.2-0.9,0.6-1.1,1.1c-0.1,0.3-0.2,0.6-0.2,0.9c0,0.3,0,0.6,0.2,0.9c0.1,0.3,0.2,0.5,0.4,0.7c0.4,0.4,0.9,0.6,1.5,0.6
	c0.3,0,0.5,0,0.8-0.2c0.2-0.1,0.4-0.3,0.5-0.4v0.5h0.9v-4.1h-0.9V49.4z M271.9,51.5c-0.1,0.2-0.1,0.3-0.2,0.4
	c-0.1,0.1-0.2,0.2-0.4,0.3c-0.2,0.1-0.3,0.1-0.5,0.1c-0.2,0-0.4,0-0.5-0.1c-0.1-0.1-0.3-0.2-0.4-0.3c-0.1-0.1-0.2-0.3-0.2-0.4
	c-0.1-0.3-0.1-0.7,0-1c0.1-0.2,0.1-0.3,0.2-0.4c0.1-0.1,0.2-0.2,0.4-0.3c0.2-0.1,0.3-0.1,0.5-0.1c0.2,0,0.3,0,0.5,0.1
	c0.1,0.1,0.3,0.2,0.4,0.3c0.1,0.1,0.2,0.3,0.2,0.4c0.1,0.2,0.1,0.3,0.1,0.5C271.9,51.2,271.9,51.4,271.9,51.5L271.9,51.5z"/>
<path class="st2" d="M276.9,51c-0.3-0.2-0.7-0.3-1.1-0.4l-0.4-0.1l-0.3,0c-0.1,0-0.1,0-0.2-0.1c-0.1,0-0.1-0.1-0.1-0.1
	c0-0.1,0-0.1,0-0.2c0-0.1,0.1-0.3,0.2-0.3c0.2-0.1,0.4-0.2,0.6-0.1c0.1,0,0.3,0,0.4,0l0.4,0.1c0.1,0,0.2,0.1,0.3,0.1l0.2,0.1
	l0.4-0.7c-0.2-0.1-0.5-0.3-0.8-0.3c-0.3-0.1-0.6-0.1-0.9-0.1c-0.2,0-0.5,0-0.7,0.1c-0.2,0.1-0.4,0.1-0.5,0.3
	c-0.1,0.1-0.3,0.3-0.3,0.4c-0.1,0.2-0.1,0.4-0.1,0.5c0,0.3,0.1,0.6,0.4,0.8c0.3,0.2,0.6,0.4,1,0.4h0.4c0.2,0,0.4,0.1,0.5,0.2
	c0.1,0.1,0.2,0.2,0.2,0.3c0,0.2-0.1,0.3-0.2,0.4c-0.2,0.1-0.5,0.1-0.7,0.1c-0.1,0-0.3,0-0.5,0c-0.1,0-0.2-0.1-0.4-0.1
	c-0.1,0-0.2-0.1-0.3-0.1c-0.1,0-0.2-0.1-0.2-0.2l-0.4,0.7c0.1,0.1,0.3,0.2,0.5,0.3c0.2,0.1,0.3,0.1,0.5,0.2c0.1,0,0.3,0.1,0.5,0.1
	h0.4c0.3,0,0.5,0,0.8-0.1c0.2-0.1,0.4-0.2,0.6-0.3c0.2-0.1,0.3-0.3,0.4-0.4c0.1-0.2,0.1-0.4,0.1-0.5C277.2,51.4,277.1,51.2,276.9,51
	z"/>
<path class="st2" d="M285.3,49.4c-0.2-0.2-0.4-0.3-0.6-0.4c-0.2-0.1-0.5-0.2-0.8-0.2c-0.3,0-0.6,0-0.8,0.2c-0.2,0.1-0.5,0.2-0.6,0.4
	c-0.2,0.2-0.3,0.4-0.4,0.7c-0.1,0.3-0.2,0.6-0.1,0.9c0,0.3,0,0.6,0.2,0.9c0.1,0.3,0.2,0.5,0.4,0.7c0.2,0.2,0.4,0.3,0.7,0.4
	c0.3,0.1,0.6,0.2,0.9,0.2c0.3,0,0.6,0,0.9-0.1c0.3-0.1,0.6-0.2,0.8-0.5l-0.5-0.6c-0.3,0.3-0.8,0.4-1.2,0.4c-0.1,0-0.3,0-0.4-0.1
	c-0.1,0-0.3-0.1-0.4-0.2c-0.2-0.2-0.4-0.5-0.4-0.8h3c0,0,0-0.1,0-0.2s0-0.1,0-0.2c0-0.3,0-0.6-0.1-0.9
	C285.6,49.9,285.5,49.6,285.3,49.4z M282.8,50.6c0-0.1,0.1-0.3,0.1-0.4c0.1-0.1,0.1-0.2,0.2-0.3c0.1-0.1,0.2-0.2,0.3-0.2
	c0.1-0.1,0.3-0.1,0.4-0.1c0.3,0,0.5,0.1,0.7,0.3c0.2,0.2,0.3,0.5,0.3,0.8L282.8,50.6z"/>
<path class="st2" d="M297.3,49.4c-0.1-0.2-0.3-0.3-0.5-0.4c-0.2-0.1-0.5-0.2-0.8-0.2c-0.6,0-1.1,0.2-1.5,0.6
	c-0.2,0.2-0.3,0.4-0.4,0.7c-0.1,0.3-0.2,0.6-0.2,0.9c0,0.3,0.1,0.6,0.2,0.9c0.1,0.3,0.3,0.5,0.4,0.7c0.2,0.2,0.4,0.3,0.7,0.5
	c0.3,0.1,0.5,0.2,0.8,0.2c0.3,0,0.5,0,0.8-0.2c0.2-0.1,0.4-0.3,0.5-0.4v0.5h0.9v-4.1h-0.9V49.4z M297.3,51.5
	c-0.1,0.2-0.1,0.3-0.3,0.4c-0.1,0.1-0.2,0.2-0.4,0.3c-0.2,0.1-0.3,0.1-0.5,0.1c-0.3,0-0.7-0.1-0.9-0.4c-0.1-0.1-0.2-0.3-0.2-0.4
	c-0.1-0.3-0.1-0.7,0-1c0-0.2,0.1-0.3,0.2-0.4c0.1-0.1,0.2-0.2,0.4-0.3c0.2-0.1,0.3-0.1,0.5-0.1c0.2,0,0.3,0,0.5,0.1
	c0.1,0.1,0.3,0.2,0.4,0.3c0.1,0.1,0.2,0.3,0.3,0.4c0.1,0.2,0.1,0.3,0.1,0.5C297.3,51.2,297.3,51.4,297.3,51.5L297.3,51.5z"/>
<path class="st2" d="M280.8,52.2c-0.1,0-0.3,0.1-0.4,0.1c-0.1,0-0.2,0-0.3,0c-0.1,0-0.1-0.1-0.2-0.1c-0.1-0.1-0.1-0.1-0.1-0.2
	c0-0.1-0.1-0.2-0.1-0.3v-1.8h1.5v-0.8h-1.5v-1.2h-0.9v1.2h-0.8v0.8h0.8v1.8c0,0.4,0.1,0.9,0.4,1.2c0.3,0.3,0.7,0.4,1.1,0.4
	c0.2,0,0.5,0,0.7-0.1c0.1,0,0.3-0.1,0.4-0.2l-0.3-0.8L280.8,52.2z"/>
<path class="st2" d="M288.9,48.8c-0.2,0-0.5,0-0.7,0.1c-0.2,0.1-0.4,0.3-0.5,0.5v-0.5h-0.8v4.1h0.8v-2.3c0-0.2,0-0.3,0.1-0.5
	c0-0.1,0.1-0.2,0.2-0.3c0.1-0.1,0.2-0.2,0.3-0.2c0.1,0,0.3-0.1,0.4-0.1c0.1,0,0.2,0,0.4,0h0.2l0.3-0.9c-0.1,0-0.1,0-0.2-0.1
	C289.1,48.8,289,48.8,288.9,48.8z"/>
<path class="st2" d="M301.4,48.8c-0.2,0-0.5,0-0.7,0.1c-0.2,0.1-0.4,0.3-0.5,0.5v-0.5h-0.8v4.1h0.8v-2.3c0-0.2,0-0.3,0.1-0.5
	c0-0.1,0.1-0.3,0.2-0.3c0.1-0.1,0.2-0.2,0.3-0.2c0.1,0,0.3-0.1,0.4-0.1c0.1,0,0.2,0,0.4,0h0.2l0.3-0.9c-0.1,0-0.1-0.1-0.2-0.1
	C301.6,48.8,301.5,48.8,301.4,48.8z"/>
<path class="st2" d="M305.6,47.3v2.2c-0.1-0.2-0.3-0.3-0.5-0.4c-0.2-0.1-0.5-0.2-0.8-0.2c-0.6,0-1.1,0.2-1.5,0.6
	c-0.2,0.2-0.3,0.4-0.4,0.7c-0.1,0.3-0.2,0.6-0.2,0.9c0,0.3,0.1,0.6,0.2,0.9c0.1,0.3,0.3,0.5,0.4,0.7c0.2,0.2,0.4,0.3,0.7,0.5
	c0.3,0.1,0.5,0.2,0.8,0.2c0.3,0,0.5,0,0.8-0.2c0.2-0.1,0.4-0.3,0.5-0.4v0.5h0.9v-5.8H305.6z M305.6,51.6c-0.1,0.2-0.1,0.3-0.3,0.4
	c-0.1,0.1-0.2,0.2-0.4,0.3c-0.2,0.1-0.3,0.1-0.5,0.1c-0.3,0-0.7-0.1-0.9-0.4c-0.1-0.1-0.2-0.3-0.2-0.4c-0.1-0.3-0.1-0.7,0-1
	c0-0.2,0.1-0.3,0.2-0.4c0.1-0.1,0.2-0.2,0.4-0.3c0.2-0.1,0.3-0.1,0.5-0.1c0.2,0,0.3,0,0.5,0.1c0.1,0.1,0.3,0.2,0.4,0.3
	c0.1,0.1,0.2,0.3,0.3,0.4c0.1,0.2,0.1,0.3,0.1,0.5C305.6,51.2,305.6,51.4,305.6,51.6L305.6,51.6z"/>
<path class="st2" d="M291.1,50c0.1-0.1,0.3-0.2,0.4-0.3c0.2-0.1,0.3-0.1,0.5-0.1l0,0c0.2,0,0.4,0,0.6,0.1c0.2,0.1,0.3,0.1,0.4,0.3
	l0.4-0.7c-0.2-0.1-0.4-0.2-0.5-0.3c-0.6-0.2-1.2-0.2-1.8,0c-0.3,0.1-0.5,0.3-0.7,0.5c-0.2,0.2-0.3,0.4-0.5,0.7
	c-0.3,0.8-0.2,1.8,0.5,2.4c0.2,0.2,0.4,0.3,0.7,0.5c0.6,0.2,1.2,0.2,1.8,0c0.2-0.1,0.4-0.2,0.5-0.3L293,52c-0.1,0.1-0.3,0.2-0.4,0.3
	c-0.2,0.1-0.4,0.1-0.6,0.1l0,0c-0.2,0-0.3,0-0.5-0.1c-0.2-0.1-0.3-0.2-0.4-0.3c-0.1-0.1-0.2-0.3-0.3-0.4c-0.1-0.2-0.1-0.4-0.1-0.5
	c0-0.2,0-0.4,0.1-0.5C290.8,50.3,290.9,50.2,291.1,50z"/>
<path class="st2" d="M308.4,52.5c0.1,0,0.1,0,0.2,0c0.1,0,0.2,0.1,0.2,0.2c0.1,0.1,0.1,0.2,0,0.3c0,0.1-0.1,0.1-0.1,0.1l-0.1,0.1
	c-0.1,0-0.1,0-0.2,0c-0.1,0-0.1,0-0.2,0l-0.1-0.1c0,0-0.1-0.1-0.1-0.1c0-0.1,0-0.2,0-0.3c0-0.1,0.1-0.1,0.1-0.1c0,0,0.1-0.1,0.1-0.1
	C308.3,52.4,308.3,52.4,308.4,52.5z M308.4,53.2c0,0,0.1,0,0.1,0l0.1-0.1c0,0,0-0.1,0.1-0.1c0-0.1,0-0.2,0-0.2c0,0,0-0.1-0.1-0.1
	l-0.1-0.1c0,0-0.1,0-0.1,0c0,0-0.1,0-0.1,0l-0.1,0.1c0,0-0.1,0.1-0.1,0.1c0,0.1,0,0.2,0,0.2c0,0,0,0.1,0.1,0.1l0.1,0.1
	C308.3,53.2,308.3,53.2,308.4,53.2z M308.4,52.7c0,0,0.1,0,0.1,0c0,0,0,0.1,0,0.1c0,0,0,0,0,0.1c0,0-0.1,0-0.1,0l0.1,0.1h-0.1
	l-0.1-0.1l0,0V53h-0.1v-0.4L308.4,52.7z M308.3,52.8L308.3,52.8l0.1,0.1l0,0l0,0L308.3,52.8L308.3,52.8z"/>
<path class="st3" d="M277.9,29.7c0-4.8,2.2-9.2,5.9-12.2c-6.7-5.3-16.5-4.2-21.8,2.5c-5.3,6.7-4.2,16.5,2.5,21.8
	c5.7,4.5,13.7,4.5,19.3,0C280.1,38.9,277.9,34.4,277.9,29.7z"/>
<ellipse class="st4" cx="283.8" cy="29.7" rx="5.9" ry="12.2"/>
<path class="st5" d="M307.9,38.1v-0.5h-0.2v-0.1h0.5v0.1h-0.2v0.5H307.9z M308.9,38.1v-0.4l-0.1,0.3h-0.1l-0.1-0.3v0.4h-0.1v-0.6
	h0.2l0.1,0.4l0.1-0.4h0.2v0.6H308.9z"/>
<path class="st5" d="M293.4,14.1c-3.5,0-6.9,1.2-9.6,3.4c6.7,5.3,7.9,15.1,2.6,21.8c-0.7,0.9-1.6,1.8-2.6,2.6
	c6.7,5.3,16.5,4.2,21.8-2.5s4.2-16.5-2.5-21.8C300.3,15.3,296.9,14.1,293.4,14.1z"/>
<g>
	<path class="st6" d="M22.1,34.1l-3.2,7.2h-2.3l3.5-7.7c-1.7-0.8-2.8-2.4-2.8-5.2c0-3.9,2.5-5.9,5.5-5.9h3v18.8h-2v-7.2H22.1z
		 M23.8,24.2h-1.1c-1.6,0-3.2,1.1-3.2,4.2c0,3,1.4,4,3.2,4h1.1V24.2z"/>
	<path d="M35.6,28.1v13.3h-2v-5.9h-3.1v5.9h-2.1V28.1h2.1v5.6h3.1v-5.6H35.6z M46.1,43.9h-1.8v-2.6h-5.7v2.6h-1.8v-4.3h0.8
		c1.2-2.8,1.3-6.9,1.3-10.5v-1.1h6.2v11.6h1.1V43.9z M43,29.7h-2.3V30c0,2.8-0.1,6.9-1.2,9.7H43V29.7z M51.8,41.5
		c-2.7,0-4.4-2.2-4.4-6.3c0-4.3,1.2-7.4,4-7.4c2.2,0,3.7,1.7,3.7,6.2v1.1h-5.5c0,3,0.8,4.6,2.5,4.6c1.2,0,2.1-0.5,2.6-0.9l0.5,1.6
		C54.2,41.1,53.1,41.5,51.8,41.5z M49.5,33.5h3.4c0-2.3-0.4-3.9-1.6-3.9C50.1,29.6,49.6,31.1,49.5,33.5z M59.2,34.7v6.6h-2.1V28.1
		h2.1v6.1l3.2-6.1h2.1l-3.3,6.2l3.8,7h-2.2L59.2,34.7z M65.2,34.7c0-4.2,1.6-6.8,4.7-6.8c1.2,0,1.9,0.3,2.4,0.7L72,30.5
		c-0.6-0.5-1.3-0.9-2.2-0.9c-1.5,0-2.5,1.7-2.5,5c0,3.3,0.8,5.2,2.4,5.2c1,0,1.8-0.4,2.2-0.8l0.5,1.5c-0.7,0.6-1.6,1-2.8,1
		C66.9,41.5,65.2,39.2,65.2,34.7z"/>
	<g>
		<path class="st7" d="M83.3,27.9c0-1.8,0.2-2.9,3.9-5.7c3.1-2.3,12.9-10.1,12.9-10.1v13.1h7.5V44h-22c-1.3,0-2.3-1.1-2.3-2.3
			L83.3,27.9z"/>
		<g>
			<g>
				<polygon class="st8" points="100.1,25.2 100.1,32.8 86.4,42.2 103.8,36.5 103.8,25.2 				"/>
				<path class="st2" d="M93.8,24.8c0.8-1,2-1.3,2.6-0.8c0.6,0.5,0.5,1.8-0.3,2.7c-0.8,1-2,1.3-2.6,0.8C92.9,27,93,25.8,93.8,24.8"
					/>
			</g>
		</g>
	</g>
</g>
</svg>
