<?xml version="1.0" encoding="UTF-8" standalone="no"?>
<svg width="229px" height="34px" viewBox="0 0 229 34" version="1.1" xmlns="http://www.w3.org/2000/svg" xmlns:xlink="http://www.w3.org/1999/xlink">
    <!-- Generator: Sketch 46.2 (44496) - http://www.bohemiancoding.com/sketch -->
    <title>Page 1</title>
    <desc>Created with Sketch.</desc>
    <defs>
        <polygon id="path-1" points="0 0.449556364 0 30.9084655 23.9585302 30.9084655 23.9585302 0.449556364"></polygon>
        <polygon id="path-3" points="26.5309875 0.357985022 0.522675 0.357985022 0.522675 33.2091335 26.5309875 33.2091335 26.5309875 0.357985022"></polygon>
        <polygon id="path-5" points="0 34 229 34 229 1 0 1"></polygon>
    </defs>
    <g id="Главная" stroke="none" stroke-width="1" fill="none" fill-rule="evenodd">
        <g id="Main" transform="translate(-781.000000, -42.000000)">
            <g id="Page-1" transform="translate(781.000000, 42.000000)">
                <g id="Group-3" transform="translate(0.000000, 2.000000)">
                    <mask id="mask-2" fill="white">
                        <use xlink:href="#path-1"></use>
                    </mask>
                    <g id="Clip-2"></g>
                    <path d="M7.19369302,28.4713018 C16.981786,28.4713018 20.8563907,22.5131018 20.8563907,15.6880291 C20.8563907,7.89857455 15.4602977,2.88559273 7.19369302,2.88559273 L2.93229767,2.88559273 L2.93229767,28.4713018 L7.19369302,28.4713018 Z M-0.00016744186,0.449556364 L7.49564651,0.449556364 C18.2716465,0.449556364 23.9585302,7.42286545 23.9585302,15.6880291 C23.9585302,22.0751564 20.1196465,30.9084655 7.49564651,30.9084655 L-0.00016744186,30.9084655 L-0.00016744186,0.449556364 Z" id="Fill-1" fill="#231F20" mask="url(#mask-2)"></path>
                </g>
                <path d="M48.4930786,20.3748156 L43.0072205,7.62180156 L37.5202071,20.3748156 L48.4930786,20.3748156 Z M43.0072205,1 L57,33 L53.8888247,33 L49.564603,22.8646129 L36.4504157,22.8646129 L32.1129082,33 L29,33 L43.0072205,1 Z" id="Fill-4" fill="#231F20"></path>
                <polygon id="Fill-6" fill="#231F20" points="67.52812 18.7494078 58 2 61.2693602 2 68.998052 15.9947446 76.7389885 2 80 2 70.4574089 18.7494078 70.4574089 33 67.52812 33"></polygon>
                <g id="Group-10" transform="translate(88.000000, 0.000000)">
                    <mask id="mask-4" fill="white">
                        <use xlink:href="#path-3"></use>
                    </mask>
                    <g id="Clip-9"></g>
                    <polygon id="Fill-8" fill="#231F20" mask="url(#mask-4)" points="0.522675 0.357816161 23.5778625 25.7781299 23.5778625 1.57474009 26.5309875 1.57474009 26.5309875 33.2091335 3.4774875 7.78375388 3.4774875 31.9922095 0.522675 31.9922095"></polygon>
                </g>
                <mask id="mask-6" fill="white">
                    <use xlink:href="#path-5"></use>
                </mask>
                <g id="Clip-12"></g>
                <polygon id="Fill-11" fill="#231F20" mask="url(#mask-6)" points="126 33 129 33 129 2 126 2"></polygon>
                <path d="M169,17.4380032 C168.957725,24.9955191 164.941619,33 154.136978,33 C144.51946,33 138,26.6819996 138,17.1333053 C138,7.35888819 144.434911,1 153.340041,1 C155.590318,1 162.43598,1.25652874 166.973095,7.96716376 L164.685685,9.61331653 C162.831306,6.92312539 159.260799,3.42246027 153.292054,3.42246027 C145.94195,3.42246027 141.175181,9.47553035 141.175181,17.1333053 C141.175181,25.0352867 146.247015,30.5775397 154.05757,30.5775397 C161.511647,30.5775397 165.782545,25.1702724 165.830532,19.8470209 L154.7174,19.8470209 L154.7174,17.4380032 L169,17.4380032 Z" id="Fill-13" fill="#231F20" mask="url(#mask-6)"></path>
                <polygon id="Fill-14" fill="#231F20" mask="url(#mask-6)" points="178 2 181.028555 2 181.028555 14.7178016 198.971445 14.7178016 198.971445 2 202 2 202 33 198.971445 33 198.971445 17.1982605 181.028555 17.1982605 181.028555 33 178 33"></polygon>
                <polygon id="Fill-15" fill="#231F20" mask="url(#mask-6)" points="218.04191 4.47931162 210 4.47931162 210 2 229 2 229 4.47931162 220.970898 4.47931162 220.970898 33 218.04191 33"></polygon>
            </g>
        </g>
    </g>
</svg>